<?xml version="1.0" encoding="utf-8"?>
<!-- Generator: Adobe Illustrator 15.1.0, SVG Export Plug-In . SVG Version: 6.00 Build 0)  -->
<!DOCTYPE svg PUBLIC "-//W3C//DTD SVG 1.1//EN" "http://www.w3.org/Graphics/SVG/1.1/DTD/svg11.dtd">
<svg version="1.1" id="Layer_1" xmlns="http://www.w3.org/2000/svg" xmlns:xlink="http://www.w3.org/1999/xlink" x="0px" y="0px"
	 width="800px" height="600px" viewBox="0 0 800 600" enable-background="new 0 0 800 600" xml:space="preserve">
<g id="XMLID_1_">
	<g>
		<path fill="#FFFF00" d="M623.387,136.531c26.755,7.393,51.294,17.561,72.897,30.224c47.053,27.568,80.091,66.933,91.286,115.118
			c16.666,71.763-18.774,147.315-87.443,206.483l-0.013-0.014C596.74,425.48,506.802,306.947,567.556,125.563
			C586.987,127.937,605.668,131.621,623.387,136.531z M726.55,241.454c0-8.353-6.779-15.119-15.133-15.119
			s-15.133,6.766-15.133,15.119c0,8.368,6.779,15.132,15.133,15.132S726.55,249.823,726.55,241.454z M675.843,248.126
			c0-8.353-6.78-15.119-15.133-15.119c-8.354,0-15.133,6.766-15.133,15.119c0,8.367,6.778,15.133,15.133,15.133
			C669.063,263.259,675.843,256.493,675.843,248.126z"/>
		<path d="M711.417,226.336c8.354,0,15.133,6.766,15.133,15.119c0,8.368-6.779,15.132-15.133,15.132s-15.133-6.764-15.133-15.132
			C696.284,233.101,703.064,226.336,711.417,226.336z"/>
		<path d="M700.115,488.344l0.014,0.014c-28.863,24.848-63.597,46.811-102.815,64.371v-0.016
			c-136.842-69.092-202.372-220.506-155.856-424.842c43.889-6.645,86.537-7.179,126.1-2.308
			C506.802,306.947,596.74,425.48,700.115,488.344z"/>
		<path d="M660.71,233.008c8.353,0,15.133,6.766,15.133,15.119c0,8.367-6.78,15.133-15.133,15.133
			c-8.354,0-15.133-6.766-15.133-15.133C645.577,239.774,652.356,233.008,660.71,233.008z"/>
		<path fill="#FFFF00" d="M405.683,134.584c7.112-1.602,14.184-3.03,21.243-4.311c3.644,4.177,6.913,8.301,9.688,12.464
			c0,0,1.869-5.818,4.846-14.866c-46.519,204.336,19.012,355.75,155.854,424.842v0.016c-28.274,12.662-58.873,23.045-91.271,30.57
			c-0.935,0.213-1.883,0.439-2.815,0.641c-134.8-72.166-201.053-213.836-168.374-427.965v-0.014
			c13.291-5.11,27.035-9.728,41.166-13.785"/>
		<path d="M503.226,583.939c-38.137,8.646-75.741,12.635-111.648,12.436c-135.013-72.109-174.871-182.771-142.167-397.074
			c25.648-16.72,54.338-31.385,85.441-43.327C302.174,370.103,368.427,511.773,503.226,583.939z"/>
		<path fill="#FFFF00" d="M391.578,596.375c-38.79-0.199-75.606-5.309-108.939-14.744
			c-101.574-61.223-139.044-132.865-114.61-310.565c21.47-26.3,49.011-50.667,81.383-71.764
			C216.707,413.603,256.565,524.265,391.578,596.375z"/>
		<path d="M282.638,581.631c-77.422-21.896-136.135-67.158-157.539-128.729c-1.827-5.23-3.375-10.582-4.643-16.051
			c-2.122-9.156-3.402-18.377-3.87-27.609c-2.415-47.424,16.494-95.381,51.442-138.177
			C143.594,448.765,181.065,520.408,282.638,581.631z"/>
		<path d="M125.1,452.902L6.927,456.677l109.446-47.424l0.213-0.014c0.468,9.234,1.749,18.453,3.87,27.609
			C121.725,442.32,123.273,447.672,125.1,452.902z"/>
	</g>
	<g>
		<path fill="none" stroke="#000000" stroke-linecap="round" stroke-linejoin="round" d="M334.853,155.96
			c13.291-5.11,27.035-9.728,41.166-13.785c8.527-2.455,17.188-4.709,25.982-6.751c1.227-0.28,2.454-0.56,3.683-0.84
			c7.112-1.602,14.184-3.03,21.243-4.311c4.858-0.88,9.703-1.681,14.533-2.402c43.888-6.645,86.535-7.179,126.099-2.308
			c19.43,2.374,38.111,6.058,55.831,10.968c26.754,7.393,51.293,17.561,72.897,30.224c47.052,27.568,80.09,66.933,91.286,115.118
			c16.665,71.763-18.774,147.315-87.443,206.483c-28.863,24.848-63.597,46.811-102.815,64.371
			c-28.274,12.662-58.872,23.045-91.271,30.57c-0.935,0.213-1.882,0.439-2.815,0.641c-38.137,8.646-75.74,12.635-111.648,12.436
			c-38.79-0.199-75.605-5.311-108.938-14.746c-77.42-21.896-136.134-67.158-157.538-128.729c-1.829-5.23-3.376-10.582-4.645-16.051
			c-2.122-9.156-3.402-18.375-3.87-27.609c-2.415-47.424,16.494-95.381,51.441-138.176c21.47-26.299,49.012-50.668,81.384-71.764
			c25.648-16.72,54.337-31.385,85.441-43.327"/>
		
			<line fill="none" stroke="#000000" stroke-width="0.5" stroke-linecap="round" stroke-linejoin="round" x1="116.374" y1="409.254" x2="6.927" y2="456.677"/>
		
			<line fill="none" stroke="#000000" stroke-width="0.5" stroke-linecap="round" stroke-linejoin="round" x1="125.1" y1="452.902" x2="6.927" y2="456.677"/>
		<path fill="none" stroke="#000000" stroke-width="0.5" stroke-linecap="round" stroke-linejoin="round" d="M168.029,271.065
			c-24.434,177.7,13.036,249.343,114.61,310.565c1.388,0.826,2.802,1.668,4.217,2.508"/>
		<path fill="none" stroke="#000000" stroke-width="0.5" stroke-linecap="round" stroke-linejoin="round" d="M567.556,125.549v0.014
			c-60.754,181.384,29.184,299.917,132.559,362.78"/>
		<path fill="none" stroke="#000000" stroke-width="5" stroke-linecap="round" stroke-linejoin="round" d="M671.386,320.371
			c21.351,24.246,51.146,24.246,66.72-4.178"/>
		<path fill="none" stroke="#000000" stroke-width="0.5" stroke-linecap="round" stroke-linejoin="round" d="M675.843,248.126
			c0,8.367-6.78,15.133-15.133,15.133c-8.354,0-15.133-6.766-15.133-15.133c0-8.353,6.778-15.119,15.133-15.119
			C669.063,233.008,675.843,239.774,675.843,248.126z"/>
		<path fill="none" stroke="#000000" stroke-width="0.5" stroke-linecap="round" stroke-linejoin="round" d="M726.55,241.454
			c0,8.368-6.779,15.132-15.133,15.132s-15.133-6.764-15.133-15.132c0-8.353,6.779-15.119,15.133-15.119
			S726.55,233.101,726.55,241.454z"/>
		<path fill="none" stroke="#000000" stroke-linecap="round" stroke-linejoin="round" d="M597.313,552.713
			c-136.842-69.092-202.372-220.506-155.856-424.842"/>
		<path fill="none" stroke="#000000" stroke-width="6" stroke-linecap="round" stroke-linejoin="round" d="M405.683,134.584
			c-1.454,16.56-2.562,27.928-2.562,27.928c-7.566-7.1-49.871-28.679-72.83-40.179c-38.809-19.5-79.49-48.879-106.458-75.833
			c-38.163-38.177-48.334-66.363-53.334-101c-0.231-54,36.25-77.425,68.103-97c37.642-23.14,125.048,18.205,148.799,50.23
			c1.095,1.468,2.122,3.016,3.056,4.63c21.47,36.988,22.766,87.683,21.777,131.824c-0.469,20.59-2.483,49.719-4.496,74.912
			C407.03,118.918,406.323,127.257,405.683,134.584z"/>
		<path fill="none" stroke="#000000" stroke-width="6" stroke-linecap="round" stroke-linejoin="round" d="M318.315-147.031
			c1.709-0.708,56.009-24.135,57.704-24.469c23.873-4.764,84.828,12.069,103.482,43c30,53,18.707,118.018,2,163
			c-8.685,23.365-16.881,51.25-40.044,93.371"/>
		<path fill="none" stroke="#000000" stroke-width="6" stroke-linecap="round" stroke-linejoin="round" d="M426.925,130.273
			c-5.672-6.524-12.237-13.143-19.19-20.176"/>
		<path fill="none" stroke="#000000" stroke-width="6" stroke-linecap="round" stroke-linejoin="round" d="M696.284,166.756
			c9.675-86.615,29.525-130.575,59.549-147.589c30.023-16.999,35.816,51,35.816,51"/>
		<path fill="none" stroke="#000000" stroke-width="6" stroke-linecap="round" stroke-linejoin="round" d="M623.988,166.756
			c-0.015-10.075-0.28-20.203-0.601-30.224c-1.453-46.25-3.935-90.311,12.517-117.454c20.016-33.012,43.647,8.42,64.211,10.422"/>
		<path fill="none" stroke="#000000" stroke-width="0.5" stroke-linecap="round" stroke-linejoin="round" d="M334.853,155.96v0.014
			c-32.679,214.129,33.574,355.799,168.373,427.965c0.12,0.066,0.239,0.133,0.36,0.199"/>
	</g>
</g>
</svg>
