<?xml version="1.0" encoding="utf-8"?>
<!-- Generator: Adobe Illustrator 15.1.0, SVG Export Plug-In . SVG Version: 6.00 Build 0)  -->
<!DOCTYPE svg PUBLIC "-//W3C//DTD SVG 1.1//EN" "http://www.w3.org/Graphics/SVG/1.1/DTD/svg11.dtd">
<svg version="1.1" id="Layer_1" xmlns="http://www.w3.org/2000/svg" xmlns:xlink="http://www.w3.org/1999/xlink" x="0px" y="0px"
	 width="800px" height="600px" viewBox="0 0 800 600" enable-background="new 0 0 800 600" xml:space="preserve">
<g id="XMLID_1_">
	<g>
		<path fill="#FFFF00" d="M555.7,216.36c20.05,5.54,38.439,13.16,54.63,22.65c35.26,20.66,60.02,50.16,68.41,86.271
			c12.49,53.779-14.07,110.399-65.53,154.739l-0.01-0.01C535.73,432.9,468.33,344.07,513.86,208.14
			C528.42,209.92,542.42,212.68,555.7,216.36z M633.01,294.99c0-6.26-5.08-11.33-11.34-11.33s-11.34,5.07-11.34,11.33
			c0,6.27,5.08,11.34,11.34,11.34S633.01,301.26,633.01,294.99z M595.01,299.99c0-6.26-5.08-11.33-11.34-11.33
			s-11.34,5.07-11.34,11.33c0,6.27,5.08,11.34,11.34,11.34S595.01,306.26,595.01,299.99z"/>
		<path d="M621.67,283.66c6.26,0,11.34,5.07,11.34,11.33c0,6.27-5.08,11.34-11.34,11.34s-11.34-5.07-11.34-11.34
			C610.33,288.73,615.41,283.66,621.67,283.66z"/>
		<path d="M613.2,480.01l0.01,0.01c-21.63,18.62-47.66,35.08-77.05,48.24v-0.01C433.61,476.47,384.5,363,419.36,209.87
			c32.89-4.98,64.85-5.38,94.5-1.73C468.33,344.07,535.73,432.9,613.2,480.01z"/>
		<path d="M583.67,288.66c6.26,0,11.34,5.07,11.34,11.33c0,6.27-5.08,11.34-11.34,11.34s-11.34-5.07-11.34-11.34
			C572.33,293.73,577.41,288.66,583.67,288.66z"/>
		<path fill="#FFFF00" d="M536.16,528.25v0.01c-21.19,9.49-44.12,17.271-68.4,22.91c-0.7,0.16-1.41,0.33-2.109,0.48
			C364.63,497.57,314.98,391.4,339.47,230.93v-0.01c9.96-3.83,20.26-7.29,30.85-10.33c7.7,5.01,14.64,9.92,20.31,15.24
			c0,0,0.83-8.52,1.92-20.93c5.33-1.2,10.63-2.27,15.92-3.23c2.73,3.13,5.181,6.22,7.261,9.34c0,0,1.399-4.36,3.63-11.14
			C384.5,363,433.61,476.47,536.16,528.25z"/>
		<path d="M441.36,59.3c15.09,25.04,9.39,62.11-3.13,95.82c-6.511,17.51-14.37,41.06-18.87,54.75c-3.62,0.54-7.25,1.14-10.891,1.8
			c-4.25-4.89-9.17-9.85-14.38-15.12c1.51-18.88,3.02-40.71,3.37-56.14c0.74-33.08-0.23-71.07-16.32-98.79
			c-0.7-1.21-1.47-2.37-2.29-3.47c1.28-0.53,2.57-0.93,3.84-1.18C400.58,33.4,427.38,36.12,441.36,59.3z"/>
		<path d="M419.36,209.87c-2.23,6.78-3.63,11.14-3.63,11.14c-2.08-3.12-4.53-6.21-7.261-9.34
			C412.11,211.01,415.74,210.41,419.36,209.87z"/>
		<path d="M381.14,41.62c16.09,27.72,17.06,65.71,16.32,98.79c-0.35,15.43-1.86,37.26-3.37,56.14
			c-11.28-11.39-23.93-24.2-34.2-40.72c-18.04-29.02-15.31-53.97-14.99-68.63c0.3-13.62,17.2-42.19,33.95-49.05
			C379.67,39.25,380.44,40.41,381.14,41.62z"/>
		<path d="M394.09,196.55c-0.53,6.61-1.06,12.86-1.54,18.35c-0.92,0.21-1.84,0.42-2.76,0.63c-6.59,1.53-13.08,3.22-19.47,5.06
			c-18.5-12.05-41.38-24.67-61.59-44.87c-28.6-28.61-40.45-61.24-44.02-78.22c-3.58-16.99,0.93-48.36,24.8-63.03
			c28.21-17.34,71.54-20.32,89.34,3.68C362.1,45.01,345.2,73.58,344.9,87.2c-0.32,14.66-3.05,39.61,14.99,68.63
			C370.16,172.35,382.81,185.16,394.09,196.55z"/>
		<path d="M389.79,215.53c0.92-0.21,1.84-0.42,2.76-0.63c-1.09,12.41-1.92,20.93-1.92,20.93c-5.67-5.32-12.61-10.23-20.31-15.24
			C376.71,218.75,383.2,217.06,389.79,215.53z"/>
		<path d="M465.65,551.65c-28.58,6.479-56.761,9.47-83.67,9.319C280.8,506.93,250.93,424,275.44,263.4
			c19.22-12.53,40.72-23.52,64.03-32.47C314.98,391.4,364.63,497.57,465.65,551.65z"/>
		<path fill="#FFFF00" d="M381.98,560.97c-29.07-0.149-56.66-3.979-81.64-11.05c-76.12-45.88-104.2-99.57-85.89-232.74
			c16.09-19.709,36.73-37.97,60.99-53.78C250.93,424,280.8,506.93,381.98,560.97z"/>
		<path d="M300.34,549.92c-58.02-16.41-102.02-50.33-118.06-96.47c-1.37-3.92-2.53-7.931-3.48-12.03
			c-1.59-6.86-2.55-13.77-2.9-20.689c-1.81-35.54,12.36-71.48,38.55-103.551C196.14,450.35,224.22,504.04,300.34,549.92z"/>
		<path d="M182.28,453.45l-88.56,2.83l82.02-35.54l0.16-0.01c0.35,6.92,1.31,13.829,2.9,20.689
			C179.75,445.52,180.91,449.53,182.28,453.45z"/>
	</g>
	<g>
		<path fill="none" stroke="#000000" stroke-linecap="round" stroke-linejoin="round" d="M339.47,230.92
			c9.96-3.83,20.26-7.29,30.85-10.33c6.39-1.84,12.88-3.53,19.47-5.06c0.92-0.21,1.84-0.42,2.76-0.63
			c5.33-1.2,10.63-2.27,15.92-3.23c3.641-0.66,7.271-1.26,10.891-1.8c32.89-4.98,64.85-5.38,94.5-1.73
			c14.56,1.78,28.56,4.54,41.84,8.22c20.05,5.54,38.439,13.16,54.63,22.65c35.26,20.66,60.02,50.16,68.41,86.271
			c12.49,53.779-14.07,110.399-65.53,154.739c-21.63,18.62-47.66,35.08-77.05,48.24c-21.19,9.49-44.12,17.271-68.4,22.91
			c-0.7,0.16-1.41,0.33-2.109,0.48c-28.58,6.479-56.761,9.47-83.67,9.319c-29.07-0.149-56.66-3.979-81.64-11.05
			c-58.02-16.41-102.02-50.33-118.06-96.47c-1.37-3.92-2.53-7.931-3.48-12.03c-1.59-6.86-2.55-13.77-2.9-20.689
			c-1.81-35.54,12.36-71.48,38.55-103.551c16.09-19.709,36.73-37.97,60.99-53.78c19.22-12.53,40.72-23.52,64.03-32.47"/>
		
			<line fill="none" stroke="#000000" stroke-width="0.5" stroke-linecap="round" stroke-linejoin="round" x1="175.74" y1="420.74" x2="93.72" y2="456.28"/>
		
			<line fill="none" stroke="#000000" stroke-width="0.5" stroke-linecap="round" stroke-linejoin="round" x1="182.28" y1="453.45" x2="93.72" y2="456.28"/>
		<path fill="none" stroke="#000000" stroke-width="0.5" stroke-linecap="round" stroke-linejoin="round" d="M214.45,317.18
			c-18.31,133.17,9.77,186.86,85.89,232.74c1.04,0.62,2.1,1.25,3.16,1.88"/>
		<path fill="none" stroke="#000000" stroke-width="0.5" stroke-linecap="round" stroke-linejoin="round" d="M513.86,208.13v0.01
			c-45.53,135.93,21.87,224.76,99.34,271.87"/>
		<path fill="none" stroke="#000000" stroke-width="4" stroke-linecap="round" stroke-linejoin="round" d="M591.67,354.13
			c16,18.17,38.33,18.17,50-3.13"/>
		<path fill="none" stroke="#000000" stroke-width="0.5" stroke-linecap="round" stroke-linejoin="round" d="M595.01,299.99
			c0,6.27-5.08,11.34-11.34,11.34s-11.34-5.07-11.34-11.34c0-6.26,5.08-11.33,11.34-11.33S595.01,293.73,595.01,299.99z"/>
		<path fill="none" stroke="#000000" stroke-width="0.5" stroke-linecap="round" stroke-linejoin="round" d="M633.01,294.99
			c0,6.27-5.08,11.34-11.34,11.34s-11.34-5.07-11.34-11.34c0-6.26,5.08-11.33,11.34-11.33S633.01,288.73,633.01,294.99z"/>
		<path fill="none" stroke="#000000" stroke-linecap="round" stroke-linejoin="round" d="M536.16,528.25
			C433.61,476.47,384.5,363,419.36,209.87"/>
		<path fill="none" stroke="#000000" stroke-width="3" stroke-linecap="round" stroke-linejoin="round" d="M392.55,214.9
			c-1.09,12.41-1.92,20.93-1.92,20.93c-5.67-5.32-12.61-10.23-20.31-15.24c-18.5-12.05-41.38-24.67-61.59-44.87
			c-28.6-28.61-40.45-61.24-44.02-78.22c-3.58-16.99,0.93-48.36,24.8-63.03c28.21-17.34,71.54-20.32,89.34,3.68
			c0.82,1.1,1.59,2.26,2.29,3.47c16.09,27.72,17.06,65.71,16.32,98.79c-0.35,15.43-1.86,37.26-3.37,56.14
			C393.56,203.16,393.03,209.41,392.55,214.9z"/>
		<path fill="none" stroke="#000000" stroke-width="3" stroke-linecap="round" stroke-linejoin="round" d="M419.36,209.87
			c-2.23,6.78-3.63,11.14-3.63,11.14c-2.08-3.12-4.53-6.21-7.261-9.34c-4.25-4.89-9.17-9.85-14.38-15.12
			c-11.28-11.39-23.93-24.2-34.2-40.72c-18.04-29.02-15.31-53.97-14.99-68.63c0.3-13.62,17.2-42.19,33.95-49.05
			c1.28-0.53,2.57-0.93,3.84-1.18c17.89-3.57,44.69-0.85,58.67,22.33c15.09,25.04,9.39,62.11-3.13,95.82
			C431.72,172.63,423.86,196.18,419.36,209.87z"/>
		<path fill="none" stroke="#000000" stroke-width="3" stroke-linecap="round" stroke-linejoin="round" d="M610.33,239.01
			c7.25-64.91,34.25-97.92,56.75-110.67c22.5-12.74,25.5,42.76,25.5,42.76"/>
		<path fill="none" stroke="#000000" stroke-width="3" stroke-linecap="round" stroke-linejoin="round" d="M556.15,239.01
			c-0.011-7.55-0.21-15.14-0.45-22.65c-1.09-34.66-2.95-67.68,9.38-88.02c15-24.74,41.18-35.24,56.59-33.74"/>
		<path fill="none" stroke="#000000" stroke-width="0.5" stroke-linecap="round" stroke-linejoin="round" d="M339.47,230.92v0.01
			c-24.49,160.47,25.16,266.64,126.18,320.72c0.09,0.05,0.18,0.1,0.27,0.149"/>
	</g>
</g>
</svg>
